<?xml version="1.0" standalone="no"?>
<!DOCTYPE svg PUBLIC "-//W3C//DTD SVG 20010904//EN"
 "http://www.w3.org/TR/2001/REC-SVG-20010904/DTD/svg10.dtd">
<svg version="1.0" xmlns="http://www.w3.org/2000/svg"
 width="500.000000pt" height="500.000000pt" viewBox="0 0 500.000000 500.000000"
 preserveAspectRatio="xMidYMid meet">

<g transform="translate(0.000000,500.000000) scale(0.100000,-0.100000)"
fill="#000000" stroke="none">
<path d="M0 2500 l0 -2500 2500 0 2500 0 0 2500 0 2500 -2500 0 -2500 0 0
-2500z m2690 895 c0 -9 -73 -171 -89 -195 -50 -80 -130 -147 -219 -181 -52
-20 -80 -22 -327 -28 l-270 -6 -46 -27 c-80 -47 -119 -128 -119 -249 0 -90 22
-158 67 -204 47 -48 90 -66 179 -72 95 -7 124 8 124 67 l0 40 -49 0 c-68 0
-81 20 -81 122 0 122 -9 118 273 118 186 0 237 -3 253 -14 18 -14 19 -31 22
-356 2 -297 1 -346 -13 -366 l-15 -24 -289 0 c-334 0 -402 9 -526 68 -240 115
-368 361 -352 677 10 201 64 334 186 454 84 84 165 130 285 161 64 17 116 19
539 19 257 1 467 -1 467 -4z m220 -1540 c0 -41 2 -75 5 -75 3 0 19 16 36 35
21 23 40 35 57 35 26 0 26 0 -12 -39 l-38 -39 36 -49 c20 -28 36 -53 36 -57 0
-3 -10 -6 -23 -6 -15 0 -30 12 -47 40 -18 30 -27 36 -37 28 -7 -6 -13 -23 -13
-39 0 -22 -5 -29 -20 -29 -19 0 -20 7 -20 135 0 128 1 135 20 135 18 0 20 -7
20 -75z m-1087 43 c9 -5 17 -15 17 -22 0 -18 -31 -29 -44 -16 -11 11 -55 13
-80 4 -9 -3 -21 -24 -26 -46 -15 -52 2 -106 35 -114 41 -10 70 -1 73 24 3 18
-1 22 -22 22 -19 0 -26 5 -26 20 0 17 7 20 50 20 l50 0 0 -53 c0 -48 -3 -55
-25 -65 -45 -21 -120 -15 -150 11 -70 60 -40 218 44 230 32 4 80 -3 104 -15z
m471 -43 c16 -30 31 -55 35 -55 4 0 20 25 36 55 25 46 34 55 58 55 l27 0 0
-125 c0 -118 -1 -125 -20 -125 -18 0 -20 7 -20 80 0 44 -3 80 -8 80 -4 0 -18
-20 -31 -45 -30 -57 -54 -59 -81 -6 -33 65 -40 60 -40 -28 0 -74 -2 -81 -20
-81 -19 0 -20 7 -20 125 l0 125 28 0 c23 0 32 -9 56 -55z m1036 20 c0 -18 5
-25 20 -25 11 0 20 -7 20 -15 0 -8 -9 -15 -20 -15 -19 0 -21 -5 -18 -62 3 -57
5 -63 26 -66 40 -6 26 -32 -18 -32 -49 0 -60 17 -60 99 0 34 -4 61 -10 61 -5
0 -10 7 -10 15 0 8 5 15 10 15 6 0 10 11 10 25 0 20 5 25 25 25 20 0 25 -5 25
-25z m-1281 -51 c14 -18 21 -41 21 -69 0 -62 -29 -95 -85 -95 -66 0 -90 25
-90 93 0 74 21 97 86 97 39 0 51 -4 68 -26z m592 16 c16 -9 19 -22 19 -95 0
-78 -2 -85 -20 -85 -11 0 -20 5 -20 12 0 9 -3 9 -12 0 -7 -7 -29 -12 -50 -12
-31 0 -41 5 -49 24 -25 53 15 96 88 96 18 0 24 5 21 18 -4 19 -52 29 -71 14
-8 -7 -18 -6 -30 3 -18 13 -18 14 0 24 23 13 99 14 124 1z m122 -2 c4 -10 7
-10 18 0 14 13 59 17 59 5 0 -16 -16 -29 -45 -38 -29 -10 -30 -13 -33 -78 -3
-59 -5 -67 -22 -67 -18 0 -20 7 -20 95 0 87 2 95 19 95 11 0 21 -6 24 -12z
m447 -8 c12 -12 20 -33 20 -55 l0 -35 -60 0 c-47 0 -60 -3 -60 -15 0 -24 43
-39 69 -25 17 9 26 9 38 -1 13 -12 13 -14 -3 -26 -27 -20 -98 -16 -125 6 -20
16 -24 29 -24 74 0 72 21 97 82 97 30 0 49 -6 63 -20z"/>
<path d="M1958 1809 c-27 -15 -25 -95 2 -109 27 -14 60 3 61 33 4 74 -19 102
-63 76z"/>
<path d="M2556 1735 c-17 -18 -11 -45 11 -45 26 0 53 20 53 40 0 25 -41 27
-64 5z"/>
<path d="M3122 1808 c-24 -24 -13 -38 28 -38 26 0 40 5 40 13 0 18 -21 37 -40
37 -9 0 -21 -5 -28 -12z"/>
</g>
</svg>
